<svg xmlns="http://www.w3.org/2000/svg" viewBox="0 0 285 53.5">
  <g id="LaCantina_02">
    <g>
      <g>
        <path d="M85.3,18.2a2.3,2.3,0,0,1,2.4-2.3A2.3,2.3,0,0,1,90,18.2V33.1h8.7a2.1,2.1,0,0,1,2.1,2.2,2.1,2.1,0,0,1-2.1,2.1h-11a2.3,2.3,0,0,1-2.4-2.3V18.2" fill="#59595b"/>
        <path d="M116.1,31.6v-.8a8.3,8.3,0,0,0-2.9-.6c-2,0-3.2.8-3.2,2.3h0c0,1.3,1,2,2.5,2s3.6-1.2,3.6-2.9m-10.6,1.1h0c0-3.5,2.7-5.2,6.6-5.2a11.9,11.9,0,0,1,4,.7v-.3c0-1.9-1.2-2.9-3.5-2.9a9.6,9.6,0,0,0-3.2.4h-.7a1.8,1.8,0,0,1-1.9-1.9,2,2,0,0,1,1.2-1.8,15.8,15.8,0,0,1,5.2-.8,7.7,7.7,0,0,1,5.5,1.8,7.1,7.1,0,0,1,1.8,5.2v7.5a2.2,2.2,0,0,1-2.3,2.2,2.1,2.1,0,0,1-2.2-1.9h0a6.1,6.1,0,0,1-4.9,2.1c-3.1,0-5.6-1.8-5.6-5" fill="#59595b"/>
        <path d="M126.6,26.8h0a10.9,10.9,0,0,1,11.1-11,11.6,11.6,0,0,1,7.2,2.2,2.4,2.4,0,0,1,.9,1.8,2.3,2.3,0,0,1-2.4,2.3,2.9,2.9,0,0,1-1.4-.4,6.7,6.7,0,0,0-4.3-1.6c-3.6,0-6.2,3-6.2,6.7h0c0,3.7,2.5,6.7,6.2,6.7a6.9,6.9,0,0,0,4.6-1.6,2.5,2.5,0,0,1,1.4-.6,2.2,2.2,0,0,1,2.2,2.2,2.5,2.5,0,0,1-.8,1.7,10.6,10.6,0,0,1-7.6,2.7,10.8,10.8,0,0,1-10.9-11" fill="#59595b"/>
        <path d="M164.6,28.5l-3-7.1-2.9,7.1h5.9m-13.2,5.9,7.4-16.8a2.9,2.9,0,0,1,2.8-1.9h.2a2.8,2.8,0,0,1,2.7,1.9L172,34.4a2.9,2.9,0,0,1,.2.9,2.2,2.2,0,0,1-2.2,2.3,2.6,2.6,0,0,1-2.3-1.6l-1.4-3.4h-9.4l-1.5,3.5a2.4,2.4,0,0,1-2.1,1.5,2.2,2.2,0,0,1-2.2-2.2,1.9,1.9,0,0,1,.3-1" fill="#59595b"/>
        <path d="M178.1,18.3a2.3,2.3,0,0,1,2.3-2.3h.5a2.8,2.8,0,0,1,2.4,1.3l9.1,11.9v-11a2.3,2.3,0,0,1,4.6,0v17a2.3,2.3,0,0,1-2.3,2.3h-.2a2.7,2.7,0,0,1-2.4-1.4l-9.4-12.3V35.3a2.3,2.3,0,1,1-4.6,0v-17" fill="#59595b"/>
        <path d="M209.4,20.4h-4.5a2.2,2.2,0,1,1,0-4.3h13.7a2.1,2.1,0,0,1,2.1,2.1,2.1,2.1,0,0,1-2.1,2.2h-4.5V35.2a2.4,2.4,0,0,1-2.4,2.4,2.3,2.3,0,0,1-2.3-2.4V20.4" fill="#59595b"/>
        <path d="M226.5,18.2a2.3,2.3,0,0,1,2.3-2.3,2.3,2.3,0,0,1,2.4,2.3v17a2.4,2.4,0,1,1-4.7,0v-17" fill="#59595b"/>
        <path d="M239.2,18.3a2.3,2.3,0,0,1,2.3-2.3h.5a2.8,2.8,0,0,1,2.4,1.3l9.1,11.9v-11a2.3,2.3,0,0,1,4.6,0v17a2.3,2.3,0,0,1-2.3,2.3h-.2a2.7,2.7,0,0,1-2.4-1.4l-9.4-12.3V35.3a2.3,2.3,0,0,1-4.6,0v-17" fill="#59595b"/>
        <path d="M277.4,28.5l-3-7.1-2.9,7.1h5.9m-13.2,5.9,7.4-16.8a2.9,2.9,0,0,1,2.8-1.9h.2a2.8,2.8,0,0,1,2.7,1.9l7.5,16.8a2.9,2.9,0,0,1,.2.9,2.2,2.2,0,0,1-2.2,2.3,2.6,2.6,0,0,1-2.3-1.6l-1.4-3.4h-9.4l-1.5,3.5a2.4,2.4,0,0,1-2.1,1.5,2.2,2.2,0,0,1-2.2-2.2,1.9,1.9,0,0,1,.3-1" fill="#59595b"/>
      </g>
      <g>
        <path d="M69,.1a.7.7,0,0,0-.8,0l-1.5,1V52.4a13,13,0,0,1,1.5,1,.7.7,0,0,0,.8,0,.5.5,0,0,0,.3-.5V.6A.5.5,0,0,0,69,.1Z" fill="#59595b"/>
        <path d="M73.5.1a.7.7,0,0,0-.8,0l-1.5,1V52.4a13,13,0,0,1,1.5,1,.7.7,0,0,0,.8,0,.5.5,0,0,0,.3-.5V.6A.5.5,0,0,0,73.5.1Z" fill="#59595b"/>
        <path d="M2.4,10.4l20.5,36,12.4,2L3.6,10.2Z" fill="#59595b"/>
        <path d="M52.1,13.1a.8.8,0,0,1,.4-.4L66.2,0,4.7,10.1,46.9,50.3l19.3,3.1L52.5,40.8c-.2-.1-.3-.2-.3-.4a1.2,1.2,0,0,1-.3-.9V14A2,2,0,0,1,52.1,13.1Z" fill="#59595b"/>
        <path d="M7.8,26.8,1.6,10.6H1A1.3,1.3,0,0,0,0,12V40.5a9.2,9.2,0,0,0,.1,1.6,1.2,1.2,0,0,0,.6.6l.5.2h.3l13.2,2.1ZM1.6,43Z" fill="#59595b"/>
      </g>
    </g>
  </g>
</svg>
