<?xml version="1.0" encoding="UTF-8"?>
<svg width="180px" height="40px" viewBox="0 0 180 40" version="1.1" xmlns="http://www.w3.org/2000/svg" xmlns:xlink="http://www.w3.org/1999/xlink">
    <title>Elements/Logo/NanaWall/Dark</title>
    <g id="Symbols" stroke="none" stroke-width="1" fill="none" fill-rule="evenodd">
        <g id="Modules/Main-Navigation/Desktop" transform="translate(-48.000000, -80.000000)" fill="#231F20">
            <g id="Group" transform="translate(48.000000, 80.000000)">
                <polygon id="Fill-1" points="-3.94745964e-15 37.7900274 4.09260274 37.7900274 4.09260274 13.3226301 28.7342466 39.1401644 28.7342466 4.96317808 24.6421918 4.96317808 24.6421918 29.213589 -3.94745964e-15 3.39605479"></polygon>
                <path d="M49.6634521,27.6026301 C49.6634521,23.6409863 47.2689315,20.2881096 43.0453699,20.2881096 C38.9966027,20.2881096 36.6020822,23.8146849 36.6020822,27.6026301 C36.6020822,31.4349589 38.9094795,35.004274 43.0453699,35.004274 C47.3116712,35.004274 49.6634521,31.6086575 49.6634521,27.6026301 L49.6634521,27.6026301 Z M53.363726,37.7900274 L49.4453699,37.7900274 L49.4453699,34.6119452 L49.3587945,34.6119452 C47.7911233,36.9198904 45.3527671,38.4881096 42.4360548,38.4881096 C36.2097534,38.4881096 32.6831781,33.3061918 32.6831781,27.4722192 C32.6831781,21.8996164 36.3845479,16.8053699 42.3056438,16.8053699 C45.3089315,16.8053699 47.7472877,18.3724932 49.3587945,20.8103014 L49.4453699,20.8103014 L49.4453699,17.4157808 L53.363726,17.4157808 L53.363726,37.7900274 Z" id="Fill-2"></path>
                <path d="M62.4556164,20.1574795 L62.5427397,20.1574795 C63.7619178,17.9810411 66.200274,16.8056986 68.6813699,16.8056986 C74.4293151,16.8056986 75.9093151,20.6807671 75.9093151,25.6435068 L75.9093151,37.7903562 L71.990411,37.7903562 L71.990411,26.1229589 C71.990411,22.6391233 71.5120548,20.2884384 67.5060274,20.2884384 C62.4556164,20.2884384 62.4556164,24.7295342 62.4556164,28.4298082 L62.4556164,37.7903562 L58.5378082,37.7903562 L58.5378082,17.4161096 L62.4556164,17.4161096 L62.4556164,20.1574795 Z" id="Fill-4"></path>
                <polygon id="Fill-6" points="166.847671 37.790137 170.765479 37.790137 170.765479 -5.92118946e-14 166.847671 -5.92118946e-14"></polygon>
                <polygon id="Fill-8" points="176.016438 37.790137 179.934247 37.790137 179.934247 -5.92118946e-14 176.016438 -5.92118946e-14"></polygon>
                <path d="M96.2826301,27.6026301 C96.2826301,23.6409863 93.8875616,20.2881096 89.6650959,20.2881096 C85.6157808,20.2881096 83.2218082,23.8146849 83.2218082,27.6026301 C83.2218082,31.4349589 85.5281096,35.004274 89.6650959,35.004274 C93.9313973,35.004274 96.2826301,31.6086575 96.2826301,27.6026301 L96.2826301,27.6026301 Z M99.9829041,37.7900274 L96.0650959,37.7900274 L96.0650959,34.6119452 L95.9774247,34.6119452 C94.4103014,36.9198904 91.9724932,38.4881096 89.0557808,38.4881096 C82.8289315,38.4881096 79.3029041,33.3061918 79.3029041,27.4722192 C79.3029041,21.8996164 83.003726,16.8053699 88.9248219,16.8053699 C91.9292055,16.8053699 94.3670137,18.3724932 95.9774247,20.8103014 L96.0650959,20.8103014 L96.0650959,17.4157808 L99.9829041,17.4157808 L99.9829041,37.7900274 Z" id="Fill-9"></path>
                <polygon id="Fill-10" points="112.512055 28.4740274 121.784932 4.26580822 131.058904 28.4740274 140.245753 4.96279452 144.686849 4.96279452 131.058904 39.097589 121.784932 15.0214247 112.512055 39.097589 98.8841096 4.96279452 103.325205 4.96279452"></polygon>
                <path d="M158.06937,27.6026301 C158.06937,23.6409863 155.673753,20.2881096 151.451288,20.2881096 C147.401425,20.2881096 145.008,23.8146849 145.008,27.6026301 C145.008,31.4349589 147.315397,35.004274 151.451288,35.004274 C155.717589,35.004274 158.06937,31.6086575 158.06937,27.6026301 L158.06937,27.6026301 Z M161.769644,37.7900274 L157.851288,37.7900274 L157.851288,34.6119452 L157.763616,34.6119452 C156.197041,36.9198904 153.758685,38.4881096 150.841973,38.4881096 C144.615671,38.4881096 141.089096,33.3061918 141.089096,27.4722192 C141.089096,21.8996164 144.78937,16.8053699 150.710466,16.8053699 C153.714849,16.8053699 156.153205,18.3724932 157.763616,20.8103014 L157.851288,20.8103014 L157.851288,17.4157808 L161.769644,17.4157808 L161.769644,37.7900274 Z" id="Fill-11"></path>
            </g>
        </g>
    </g>
</svg>